<?xml version="1.0" encoding="utf-8"?>
<!-- Generator: Adobe Illustrator 22.1.0, SVG Export Plug-In . SVG Version: 6.00 Build 0)  -->
<svg version="1.1" id="Layer_1" xmlns="http://www.w3.org/2000/svg" xmlns:xlink="http://www.w3.org/1999/xlink" x="0px" y="0px"
	 viewBox="0 0 1440 197" style="enable-background:new 0 0 1440 197;" xml:space="preserve">
<style type="text/css">
	.st0{clip-path:url(#a_2_);fill:#211A29;}
	.st1{clip-path:url(#a_2_);fill:#1A1823;}
	.st2{clip-path:url(#a_2_);fill:#2F2439;}
</style>
<g>
	<defs>
		<path id="a_1_" d="M0,0h1440v197H0V0z"/>
	</defs>
	<clipPath id="a_2_">
		<use xlink:href="#a_1_"  style="overflow:visible;"/>
	</clipPath>
	<path class="st0" d="M1440,17.7L1088.5,0L949.7,50.2L878,25.1L556,0L398.5,50.2l-95.8-25.1l-51.3,16.8L45.7,0L0,17.7V160h1440V17.7
		z"/>
	<path class="st1" d="M1137.3,42.6l51.3,27.8l80.6-5.4L1137.3,42.6z M884,1l157.5,83.2l80.9-26.1L884,1z M351.5,1l138.8,83.2
		l49.3-28.5L351.5,1z"/>
	<path class="st2" d="M0,84.2L351.5,1l138.8,83.2L562,42.6L884,1l157.5,83.2l95.8-41.6l51.3,27.8L1394.3,1l45.7,83.2V266H0V84.2z"/>
</g>
</svg>
